<svg version="1.1" id="Layer_1" xmlns="http://www.w3.org/2000/svg" x="0" y="0" viewBox="0 0 336 48" xml:space="preserve"><style>.st0{fill:#fff}</style><a><path class="st0" d="M11.9 31.9c-.1.2-.4.5-.9.5s-1.1-.4-1.1-1.3c0-.5.1-1 .2-1.3.2-.6 0-1.1-.5-1.5-.2-.2-.6-.3-.9-.2-.3.1-.6.3-.8.5-.1.2-.2.5-.3.7v.1c-.1.3-.3.4-.4.4-.1 0-.1 0-.2-.2-.1-.4 0-1.4.6-2.1.4-.5 1.1-.7 1.7-.6.7.1 1.2.5 1.6 1.2.5.9.1 1.8-.2 2.4 0 .1-.1.1-.1.2-.2.4-.2.7 0 .9.1.2.3.3.5.3h.3c.1 0 .2-.1.3 0 .2-.2.3-.1.2 0zm-2.3-6.8c-.4 0-.7 0-1 .1-2.3.5-3.6 2.5-3.4 5.1.2 2.3 2.6 4.3 4.7 4.4h.7c2.3-.4 2.9-3 2.6-5.5-.4-3-2.3-4-3.6-4.1z"/><path class="st0" d="M40.6 36.5c-2.5 6.1-8.5 9.5-15.7 9.3-6.7-.2-12.3-3.8-14.8-9.6-1.5 0-3.1-.7-4.2-1.7-1.2-1.1-2-2.6-2.2-4.1-.1-1.2 0-2.3.4-3.2L2.7 26c-6.4-5.5 13.6-28.1 20-22.4l2.2 2.2 1.2-.5C31.7 2.9 36.3 4 36.3 7.8c0 2-1.2 4.2-3.2 6.3.7.7 1.3 1.7 1.6 2.9.3.9.3 1.8.3 2.4 0 .8.1 2.7.1 2.7.1 0 .6.2.8.2 1.5.4 2.6 1 3.1 1.6.5.6.8 1.1.9 1.7.1.5.1 1.4-.6 2.4 0 0 .2.4.3.9.2.5.3 1 .3 1.1.6 0 1.6.7 1.6 2.4s-.7 3.7-.9 4.1zm1.5-6.9c-.3-.3-.6-.6-1-.8 0-.1-.1-.2-.1-.3 0-.1-.1-.2-.1-.3.6-1.2.5-2.2.4-2.8-.1-1-.6-1.8-1.3-2.5-.9-.9-2.3-1.5-3.5-1.9v-1.6c0-.5-.1-1.6-.4-2.7-.3-.9-.6-1.7-1.1-2.4 1.8-2.2 2.7-4.4 2.7-6.4 0-3.2-2.5-5.3-6.3-5.3-1.8 0-3.9.5-6 1.3 0 0-.1.1-.3.1l-1.5-1.5c-1-.8-2.1-1.3-3.5-1.3-1.7 0-3.5.6-5.6 1.8-1.8 1.1-3.7 2.6-5.6 4.4C5.1 11.1 2 15.5.7 19.2c-.6 1.6-.8 3-.7 4.3.1 1.5.7 2.8 1.8 3.7l.6.6c-.2.9-.3 1.9-.2 2.9.2 1.9 1.1 3.7 2.7 5.1 1.2 1.1 2.7 1.8 4.2 2 1.4 2.8 3.4 5.1 6 6.7 2.8 1.8 6.2 2.8 9.7 2.9h.7c3.7 0 7.1-.9 9.9-2.7 2.9-1.8 5.2-4.4 6.5-7.6.2-.6 1-2.7 1-4.6.1-1.5-.4-2.4-.8-2.9z"/><path class="st0" d="M39.6 31.4c-.3-.2-.7-.1-.7-.1s-.2-1.2-.7-2.3c-1.5 1.2-3.4 2-4.8 2.4-1.7.5-3.9.9-6.5.7-1.4-.1-2.3-.5-2.7.6 3.2 1.2 6.6.7 6.6.7.1 0 .1 0 .1.1s0 .1-.1.1c0 0-2.6 1.2-6.7-.1.1 1 1.1 1.4 1.5 1.6.6.2 1.2.3 1.2.3 5.1.9 9.9-2.1 11-2.8.1-.1.1 0 .1.1-.1.1-.1.1-.1.2-1.3 1.7-4.9 3.7-9.5 3.7-2 0-4-.7-4.8-1.8-1.1-1.7-.1-4.2 1.8-4 0 0 .7.1.8.1 2.4.3 5.8-.1 8.7-1.4 2.6-1.2 3.6-2.6 3.4-3.7 0-.3-.2-.6-.4-.9-.5-.5-1.2-.8-2.5-1.2-.4-.1-.7-.2-1-.3-.5-.2-.8-.3-.9-1.3 0-.4-.1-2-.1-2.7 0-1.1-.2-2.7-1.1-3.3-.2-.2-.5-.2-.8-.3h-.5c-.5.1-.9.4-1.3.7-1.2 1-2.2 1.2-3.3 1.1-.7 0-1.4-.1-2.2-.2h-.5c-1.9-.1-3.8 1.5-4.2 3.8-.5 3.2 1.8 4.9 2.5 5.8.1.1.2.3.2.4 0 .2-.1.3-.2.5-1.9 2-2.5 5.1-1.8 7.7l.3.9c1.7 4 6.9 5.8 11.9 4.1.7-.2 1.3-.5 1.9-.8 1.1-.6 2.1-1.3 2.9-2.2 1.3-1.4 2.1-3 2.5-4.9.6-.7.3-1.1 0-1.3zm-10.2-6.1c.1-.3.5-.4.9-.2s.6.6.4.8c-.1.3-.5.4-.9.2-.3-.1-.5-.5-.4-.8zm3.4-.5c0 .4-.3.8-.6.8s-.5-.4-.5-.8.3-.8.6-.8c.3.1.5.4.5.8zm-1.4-5c.6-.1.9.5 1.1 1.6.1.7.1 1.3 0 1.7h-.9c-.2-.3-.4-.8-.6-1.4-.2-1-.2-1.8.4-1.9zM29.7 12c.1 0 .1-.1.1-.2-1.1-.6-2.8-1-4-1-.1 0-.1-.1-.1-.1.2-.3.5-.6.8-.7.1 0 0-.1-.1-.1-1.7.1-3.7.9-4.8 1.7-.1 0-.1 0-.1-.1.1-.4.4-1 .5-1.2 0-.1 0-.1-.1-.1-1.8.9-3.8 2.5-5.4 4.4-.1.1 0 .2.1.1 1.4-1 3.3-2 5.9-2.6 2.8-.7 5.5-.5 7.2-.1zM23.1 6.4s-1.7-2.1-2.2-2.2c-3.2-.9-10 4.1-14.4 10.7-1.8 2.7-4.3 7.4-3.1 9.8.1.3 1 1.1 1.4 1.5.8-1.2 2-2 3.4-2.3 1.8-5.1 4.8-9.8 8.7-13 3.1-2.6 6.2-4.5 6.2-4.5z"/><g><path d="M26.8 24.5c.5.2.7.3.8.2.1-.1 0-.2-.1-.4-.2-.4-.7-.7-1.2-.9-1-.4-2.2-.3-3.1.4-.3.2-.6.5-.5.7 0 .1.1.1.2.1.2 0 1.1-.4 2.1-.5.7-.1 1.3.2 1.8.4zM25.9 25c-.6.1-.9.3-1.1.5-.2.2-.3.3-.3.4v.1h.1c.1 0 .4-.1.4-.1.8-.3 1.4-.3 1.9-.2.3 0 .4.1.5 0v-.2c-.1-.3-.7-.6-1.5-.5z"/></g><g><path d="M25.9 25.7c.2-.7.2-1.4 0-2-.2-1.1-.6-1.7-1.3-1.6s-.7 1-.5 2.1c.1.5.3 1 .6 1.4.5.6.9.4 1.2.1z" fill="none"/></g></a><path id="C" class="st0" d="M174.6 29.9c-2.5 10-11.2 16.6-21.6 16.6-13.4 0-22.5-10.6-22.5-22 0-10.8 8.4-21.9 22.4-21.9 13.4 0 20.5 10.2 21.7 16.9h-11.4c-1.2-3.1-4.4-7.4-10.3-7.4-7.3 0-11.4 6.3-11.4 12.3 0 6.4 4.4 12.6 11.5 12.6 6.8 0 9.6-5.7 10.3-7.1h11.3z"/><path id="o" class="st0" d="M192.9 13.1c11.6 0 17.2 9.1 17.2 16.8 0 7.8-5.6 16.8-17.2 16.8s-17.1-9.1-17.1-16.8c-.1-7.8 5.5-16.8 17.1-16.8zm0 24.8c4.1 0 7.6-3.4 7.6-8s-3.5-8-7.6-8-7.6 3.4-7.6 8 3.5 8 7.6 8z"/><path id="u" class="st0" d="M241.1 45.9h-9l.1-3.8h-.2c-2 4-5.9 4.4-8.3 4.4-2 0-6.6-.5-9.4-4-2.5-3.1-2.9-5.4-2.9-9.7V13.9h9.6v17.5c0 2.2 0 6.3 5.1 6.3 2.8 0 5.5-1.4 5.5-6.4V13.9h9.6l-.1 32z"/><path id="i" class="st0" d="M276.1 13.9h-9.6V46h9.6V13.9z"/><path id="i-dot" class="st0" d="M271.2 0c3.2 0 5.7 2.6 5.7 5.7 0 3.2-2.5 5.7-5.7 5.7-3 0-5.6-2.6-5.6-5.7.1-3.1 2.6-5.7 5.6-5.7z"/><path id="r2" class="st0" d="M322.7 45.9h-10.2v-32h10.2v32zm6.6-32.6c3.8 0 6.7 2.8 6.7 6.4 0 3.5-2.9 6.3-6.7 6.3-3.7 0-6.6-2.8-6.6-6.3 0-3.7 2.9-6.4 6.6-6.4z"/><path id="e" class="st0" d="M310.2 35.9c-1.6 3.6-3.8 6.4-6.5 8.2-2.7 1.9-5.8 2.9-9.1 2.9-9.2 0-17-7.4-17-17 0-9 7.1-17.2 16.8-17.2 9.8 0 17 7.7 17 17.5 0 1.3-.1 1.8-.2 2.5H287c.6 3.8 3.8 6.1 7.5 6.1 3 0 4.5-1.3 5.8-3h9.9zm-8.5-9.5c-.4-1.9-2.3-5.5-7.3-5.5s-6.9 3.6-7.3 5.5h14.6z"/><path id="r" class="st0" d="M252.5 45.9H243v-32h9.4v32zm6.3-32.6c3.6 0 6.3 2.8 6.3 6.4 0 3.5-2.7 6.3-6.3 6.3-3.5 0-6.2-2.8-6.2-6.3-.1-3.7 2.7-6.4 6.2-6.4z"/><path id="bird-eye" class="st0" d="M102.6 14.3c-.2 0-.4.2-.4.4s.2.4.4.4.4-.2.4-.4c-.1-.2-.2-.4-.4-.4z"/><path id="bird" class="st0" d="M97 2.3c-12.4 0-22.4 10-22.4 22.3s10 22.3 22.4 22.3c12.4 0 22.4-10 22.4-22.3S109.3 2.3 97 2.3zm8.7 13.5h-.2c-3 .3-.6 4.4-.6 4.4.8 1.7.9 2.3.9 3.6-.1 3.2-2.3 5.9-4.9 7.4 0 0-1.6 1.9-1.5 2.7l.5 1.1h1.6c.4 0 .7.3.7.6h-4.5c0-.3.3-.6.7-.6h.3s-1.5-.7-1.8-2.5c-4.3 1.3-8-.7-8-.7s-6.7 2.4-7.7 1.7c.5-.5 4.3-2.4 4.9-2.7C97.5 24.3 98.5 22 98.5 22c1.4-1.8 1-3.8 1.4-5.7l.2-1.3c.2-1.1 1.2-1.8 2.3-1.7.8.1 1.5.6 1.8 1.3 0 0-.3.3 0 .4.3.1.4-.2.4-.2.6.1 1.1.5 1.1.9.3 0 0 .1 0 .1z"/><path id="add-stroke_1_" class="st0" d="M66.9 2L50.4 47.3"/><path transform="rotate(-69.904 58.635 24.624)" class="st0" d="M34.5 24.4h48.2v.5H34.5z"/></svg>