<svg width="258" height="124" fill="none" xmlns="http://www.w3.org/2000/svg"><path d="M218.21 76.484l-7.142 27.653H6.629V25.295h238.143v51.19H218.21z" fill="#fff"/><path d="M257.93 40.353s.633-5.136-2.639-8.479c-2.076-2.11-5.418-5.594-7.599-7.845l-2.709-2.815c-.422-.457-.88-.738-1.056-.88a.265.265 0 0 0-.14-.07c-1.196-.633-3.096-1.266-6.157-1.266h-15.234s-6.684-.035-7.282 4.538l-2.955-2.85s-1.971-1.794-6.157-1.759c-4.222.07-16.148.07-16.148.07s-3.413-.386-5.7 1.83c0 0-16.113-6.297-36.272 0 0 0-1.548-1.794-9.323-1.794s-38.523-.07-38.523-.07-3.624-.352-5.91 2.005c0 0-3.695-1.935-9.289-1.97-5.593-.07-76.836-.035-76.836-.035S.895 18.435.895 26.245v73.459s-.528 3.764 3.307 7.705c3.8 3.975 11.434 11.856 11.434 11.856s3.06 3.448 9.393 3.236c6.333-.211 3.307-.07 3.307-.07s11.786 0 14.6-8.83l12.243-.036s16.606 17.239 48.164 5.946c0 0 4.046 2.955 11.152 3.026 7.107.07 8.409-.071 8.409-.071s7.845-.14 10.695-3.342c0 0 3.553 3.061 8.232 3.237 4.644.176 14.952.105 14.952.105s2.076.141 3.448-.527l.317-.106s1.301.668 5.277.668h26.984s36.659-.351 28.356-40.916l.563-.527s2.744 4.01 11.117 4.08c8.373.071 9.429.071 9.429.071S258.035 86.405 258 69.342l-.07-28.989zM49.867 76.273a.227.227 0 0 1-.211.211H23.235v3.624H46.49c.105 0 .21.105.21.211v9.71a.227.227 0 0 1-.21.211H23.235v8.69a.227.227 0 0 1-.211.211h-12.49a.227.227 0 0 1-.21-.211v-4.116-17.837-11.258c0-.07.034-.106.07-.141.035-.035.07-.07.14-.07H49.691c.106 0 .211.105.211.21-.035 3.519-.035 7.037-.035 10.555zm0-37.75a.227.227 0 0 1-.211.212H23.235v3.623H46.49c.105 0 .21.106.21.211v9.71a.227.227 0 0 1-.21.211H23.235v8.69a.227.227 0 0 1-.211.211h-12.49a.227.227 0 0 1-.21-.21v-4.117-17.837V27.97c0-.07.034-.105.07-.14.035-.036.07-.071.14-.071H49.691c.106 0 .211.106.211.211-.035 3.518-.035 7.036-.035 10.554zM54.16 57.03V39.192 27.934c0-.106.106-.211.211-.211H85.295c2.322 0 4.608.668 6.543 1.935 3.483 2.287 5.735 6.262 5.805 10.413.106 4.926-2.498 9.535-6.895 11.821 2.287 3.061 4.573 6.087 6.86 9.148.106.14-.035.316-.176.316H85.12c-.457 0-.95.141-1.267-.246-1.794-2.146-3.342-4.503-5.03-6.72-.247-.352-.599-.703-.81-1.09 0-.035-.035-.035-.035-.07h-.14c-1.127.14-2.358 0-3.519 0h-7.212v7.88a.227.227 0 0 1-.211.211H54.406a.227.227 0 0 1-.212-.211c-.035-1.337-.035-2.709-.035-4.081zm44.329 9.147v16.676c0 3.131-.387 6.262-1.97 9.042-1.9 3.271-5.137 5.347-8.655 6.508-4.257 1.407-8.866 1.654-13.299 1.513-4.186-.14-8.478-.704-12.278-2.568-3.377-1.654-6.016-4.363-7.212-7.951-.88-2.604-.844-5.277-.844-7.986V65.719c0-.106.105-.211.21-.211h12.49c.106 0 .211.105.211.21v16.465c0 1.9.246 3.835 1.83 5.102 2.251 1.794 5.804 1.794 8.513 1.689 2.569-.106 5.84-.493 7.283-2.956.81-1.407.739-3.06.739-4.608v-5.84-9.816c0-.07.035-.106.07-.14.035-.036.07-.071.14-.071h12.526c.105 0 .21.105.21.21.036.106.036.247.036.423zm4.01-4.785a.227.227 0 0 1-.211-.21v-4.117-17.837V27.97c0-.07.036-.105.071-.14.035-.036.07-.071.14-.071h37.539c.105 0 .211.106.211.211v8.514a.227.227 0 0 1-.211.211H115.234v3.8H140.037c.105 0 .211.105.211.21v7.67a.227.227 0 0 1-.211.211H115.234v3.8H140.037c.105 0 .211.105.211.211v8.514c0 .105-.106.211-.211.211h-24.838c-4.257.07-8.479.07-12.701.07zm46.651 8.409v29.095a.227.227 0 0 1-.211.21h-13.791c-.493 0-.598-.245-.88-.597-1.829-2.146-3.659-4.328-5.523-6.474-3.624-4.257-7.248-8.549-10.907-12.806V98.93a.227.227 0 0 1-.211.211h-12.489a.227.227 0 0 1-.211-.211v-4.116-17.837-11.258c0-.106.105-.211.211-.211h16.183c.282 0 .669-.07.95 0 .387.07.669.598.915.914.809 1.02 1.618 2.04 2.463 3.061 3.518 4.398 7.071 8.83 10.589 13.228v-1.548-15.41c0-.07.036-.105.071-.14.035-.035.07-.07.14-.07h12.525c.106 0 .211.105.211.21-.035 1.303-.035 2.675-.035 4.047zm4.186-9.042c-2.251-.704-4.432-1.83-6.051-3.588-1.759-1.935-2.603-4.398-2.92-6.966 0-.106.106-.211.211-.211H156.643c.281 0 .703-.07.985 0 .175.035.211.105.316.246.317.457.669.915 1.126 1.266 1.02.81 2.287 1.197 3.518 1.443 2.674.492 5.7.422 8.373-.106 1.091-.21 2.322-.527 3.167-1.266.563-.493 1.02-1.478.246-1.97-.809-.528-2.041-.634-2.991-.74-1.512-.175-2.99-.245-4.503-.316a160.554 160.554 0 0 1-7.106-.457c-4.081-.387-8.761-.915-12.243-3.307-1.337-.915-2.428-2.217-2.885-3.765-.563-1.864-.352-4.045.351-5.84 1.443-3.834 5.243-5.875 8.972-6.895 4.925-1.372 10.202-1.478 15.304-1.302 4.362.14 9.041.457 12.982 2.533 3.658 1.865 5.629 5.313 6.121 9.358a.227.227 0 0 1-.211.211h-13.087a.193.193 0 0 1-.176-.105c-1.126-2.005-3.343-2.71-5.524-2.955-2.04-.247-4.186-.211-6.227 0-1.548.176-3.8.422-4.82 1.794-.352.457-.563 1.16-.07 1.583.492.422 1.266.528 1.864.633 2.147.387 4.363.422 6.544.528 3.202.176 6.438.352 9.64.81 2.885.421 5.91 1.055 8.443 2.603 1.865 1.16 3.272 2.885 3.624 5.1.352 2.358-.246 4.962-1.653 6.932-3.202 4.468-9.535 5.523-14.636 5.945-3.377.282-6.825.282-10.202.106-2.921-.14-5.805-.458-8.55-1.302zm39.368 36.835c-2.216 1.126-4.608 1.583-7.071 1.583H157.381c-.105 0-.211-.105-.211-.21v-4.117-17.837-11.258c0-.106.106-.211.211-.211h28.568c.879 0 1.759.07 2.603.21 7.001 1.127 11.891 7.354 12.736 14.179.879 6.895-2.146 14.39-8.585 17.661zm44.012-65.543v29.095a.227.227 0 0 1-.211.211H223.98c-.106 0-.212-.105-.212-.21V50.027h-18.364v11.117a.227.227 0 0 1-.211.211h-12.49a.227.227 0 0 1-.211-.21v-4.117-17.837-11.258c0-.106.106-.211.211-.211h12.49c.105 0 .211.105.211.21v11.118h18.364V27.934c0-.106.106-.211.212-.211H236.504c.106 0 .211.105.211.21v4.117zM84.31 39.122c.809 1.372.21 3.342-1.337 3.87-.387.105-.739.105-1.126.105H67.141V37.89h14.213c1.126 0 2.287.07 2.956 1.232zm-6.333 14.142c-.07-.035-.07-.105 0 0zm.035 0h.07-.07zM183.591 88.2c-3.271.035-6.543 0-9.78 0h-3.694V76.484h13.474c6.544.106 6.509 11.645 0 11.716zM42.83 9.71c-.808 3.237-3.623 5.383-6.965 5.383-4.327 0-7.283-3.413-7.283-7.142 0-3.518 2.71-7.107 7.213-7.107 4.327 0 6.649 3.307 7 5.453h-3.693c-.387-1.02-1.443-2.392-3.343-2.392-2.357 0-3.694 2.04-3.694 4.01 0 2.077 1.408 4.082 3.694 4.082 2.182 0 3.096-1.83 3.307-2.322h3.765v.035zM48.741 4.257c3.73 0 5.559 2.955 5.559 5.453 0 2.533-1.794 5.453-5.559 5.453-3.729 0-5.558-2.955-5.558-5.453 0-2.533 1.794-5.453 5.558-5.453zm0 8.056c1.337 0 2.463-1.09 2.463-2.603 0-1.513-1.126-2.603-2.463-2.603-1.337 0-2.462 1.09-2.462 2.603 0 1.478 1.125 2.603 2.462 2.603zM64.327 14.882h-2.92l.035-1.232h-.07c-.634 1.302-1.9 1.408-2.674 1.408-.634 0-2.111-.141-3.026-1.302-.81-1.02-.915-1.76-.915-3.166V4.503h3.096v5.665c0 .703 0 2.04 1.654 2.04.88 0 1.759-.457 1.759-2.076V4.503h3.096l-.035 10.379zM75.62 4.503h-3.096v10.414h3.096V4.503zM74.072 0c1.02 0 1.83.844 1.83 1.865 0 1.02-.81 1.864-1.83 1.864-.985 0-1.794-.844-1.794-1.864S73.087 0 74.072 0zM90.713 14.917h-3.307V4.503h3.307v10.414zm2.146-10.625c1.231 0 2.146.915 2.146 2.076 0 1.16-.95 2.04-2.146 2.04s-2.146-.915-2.146-2.04c0-1.161.95-2.076 2.146-2.076zM86.667 11.645c-.493 1.16-1.231 2.076-2.111 2.674-.844.633-1.9.95-2.955.95-2.99 0-5.489-2.428-5.489-5.524 0-2.92 2.287-5.594 5.454-5.594 3.166 0 5.488 2.498 5.488 5.664 0 .423-.035.599-.07.81h-7.776c.176 1.231 1.232 1.97 2.428 1.97.95 0 1.442-.422 1.9-.985h3.13v.035zm-2.744-3.096c-.141-.633-.74-1.794-2.357-1.794-1.619 0-2.217 1.16-2.358 1.794h4.715zM67.986 14.917h-3.061V4.503h3.06v10.414zm2.04-10.625c1.161 0 2.04.915 2.04 2.076 0 1.16-.879 2.04-2.04 2.04-1.126 0-2.005-.915-2.005-2.04 0-1.161.88-2.076 2.005-2.076zM19.54 4.644c-.07 0-.105.035-.105.105 0 .07.036.106.106.106s.105-.035.105-.106c0-.035-.035-.105-.105-.105z" fill="#9E2986"/><path d="M17.711.739a7.237 7.237 0 0 0-7.247 7.247 7.237 7.237 0 0 0 7.247 7.247 7.237 7.237 0 0 0 7.248-7.247A7.237 7.237 0 0 0 17.71.74zm2.815 4.397h-.07c-.95.106-.176 1.408-.176 1.408.246.563.281.774.281 1.16-.035 1.02-.739 1.9-1.583 2.393 0 0-.528.598-.493.88l.141.351h.528c.105 0 .21.07.21.176H17.994c0-.105.105-.176.21-.176h.107s-.493-.21-.563-.844c-1.372.422-2.569-.211-2.569-.211s-2.18.774-2.462.528c.14-.141 1.372-.774 1.583-.88 3.694-2.11 4.01-2.85 4.01-2.85.423-.562.352-1.23.458-1.829l.07-.422a.69.69 0 0 1 .739-.563.773.773 0 0 1 .598.422s-.105.07 0 .14c.106.036.14-.07.14-.07.212.036.353.141.388.282-.07.07-.14.105-.176.105z" fill="#9E2986"/></svg>