<svg width="25" height="25" viewBox="0 0 25 25" fill="none" xmlns="http://www.w3.org/2000/svg">
<path fill-rule="evenodd" clip-rule="evenodd" d="M12.2778 0C5.55832 0 0.111115 5.4472 0.111115 12.1667C0.111115 18.8861 5.55832 24.3333 12.2778 24.3333C18.9972 24.3333 24.4444 18.8861 24.4444 12.1667C24.4444 5.4472 18.9972 0 12.2778 0ZM5.95193 10.0769H8.70916V18.3613H5.95193V10.0769ZM8.89078 7.51429C8.87288 6.70202 8.29202 6.08334 7.34879 6.08334C6.40555 6.08334 5.7889 6.70202 5.7889 7.51429C5.7889 8.30974 6.38733 8.94623 7.313 8.94623H7.33062C8.29202 8.94623 8.89078 8.30974 8.89078 7.51429ZM15.4782 9.88246C17.2926 9.88246 18.6528 11.0668 18.6528 13.6113L18.6527 18.3613H15.8956V13.9292C15.8956 12.8159 15.4966 12.0563 14.4985 12.0563C13.7367 12.0563 13.283 12.5684 13.0837 13.063C13.0108 13.2403 12.9929 13.4873 12.9929 13.7349V18.3615H10.2354C10.2354 18.3615 10.2717 10.8546 10.2354 10.0772H12.9929V11.2506C13.3589 10.6865 14.0143 9.88246 15.4782 9.88246Z" fill="#1D1D1B"/>
</svg>
