<svg width="25" height="25" viewBox="0 0 25 25" fill="none" xmlns="http://www.w3.org/2000/svg">
<path fill-rule="evenodd" clip-rule="evenodd" d="M12.7222 0C6.00276 0 0.555557 5.4472 0.555557 12.1667C0.555557 18.8861 6.00276 24.3333 12.7222 24.3333C19.4417 24.3333 24.8889 18.8861 24.8889 12.1667C24.8889 5.4472 19.4417 0 12.7222 0ZM12.3834 10.3102L12.3579 9.88923C12.2813 8.79808 12.9536 7.80144 14.0174 7.41481C14.4089 7.27735 15.0727 7.26016 15.5067 7.38045C15.6769 7.432 16.0003 7.60383 16.2301 7.75848L16.6471 8.04201L17.1066 7.89595C17.3619 7.81863 17.7024 7.68975 17.8555 7.60383C18.0002 7.52651 18.1279 7.48355 18.1279 7.50932C18.1279 7.65538 17.813 8.1537 17.5492 8.42864C17.1917 8.81526 17.2939 8.84963 18.0172 8.59188C18.4513 8.44582 18.4598 8.44582 18.3747 8.60906C18.3236 8.69498 18.0598 8.99569 17.7789 9.27063C17.3024 9.74317 17.2768 9.79472 17.2768 10.1899C17.2768 10.8 16.9875 12.0715 16.6981 12.7675C16.162 14.0734 15.0131 15.4223 13.8642 16.101C12.2472 17.0547 10.0941 17.2953 8.28141 16.7368C7.67718 16.5478 6.63892 16.0667 6.63892 15.9808C6.63892 15.955 6.9538 15.9206 7.33677 15.912C8.13674 15.8948 8.93671 15.6715 9.61753 15.2762L10.0771 15.0013L9.54945 14.8209C8.80054 14.5631 8.12823 13.9703 7.95802 13.4118C7.90696 13.2314 7.92398 13.2228 8.40056 13.2228L8.89416 13.2142L8.47715 13.0166C7.98355 12.7675 7.5325 12.3465 7.31123 11.9169C7.14954 11.6076 6.94529 10.8257 7.00486 10.7656C7.02188 10.7398 7.2006 10.7914 7.40485 10.8601C7.99206 11.0749 8.06865 11.0233 7.72824 10.6625C7.08997 10.0095 6.89423 9.03865 7.2006 8.11934L7.34528 7.70693L7.90696 8.2654C9.05585 9.39091 10.409 10.0611 11.9579 10.2587L12.3834 10.3102Z" fill="#1D1D1B"/>
</svg>
